# xmcd CD database file
#
# Track frame offsets:
#	150
#	20750
#	43100
#	61700
#	83688
#	102750
#	127125
#	147625
#	175075
#	195100
#	213150
#
# Disc length: 3137 seconds
#
# Revision: 1
# Processed by: cddbd v1.5.2PL0 Copyright (c) Steve Scherf et al.
# Submitted via: CDex 1.70beta2
#
DISCID=920c3f0b
DTITLE=緒方恵美 - Multipheno -多重人格-
DYEAR=1996
DGENRE=Blues
TTITLE0=赤い河
TTITLE1=闇の扉
TTITLE2=カミング・アウト
TTITLE3=holy night
TTITLE4=傷つかない愛はいらない(album version)
TTITLE5=落葉の手紙(album version)
TTITLE6=lost paradise (duet with 高橋洋子)
TTITLE7=アンバランスで行こう
TTITLE8="Dear, My Angel"
TTITLE9=never, Neverland
TTITLE10=RUN (remix version)
EXTD=YEAR: 1996
EXTT0=
EXTT1=
EXTT2=
EXTT3=
EXTT4=
EXTT5=
EXTT6=
EXTT7=
EXTT8=
EXTT9=
EXTT10=
PLAYORDER=
